<svg width="1162" height="551" viewBox="0 0 1162 551" fill="none" xmlns="http://www.w3.org/2000/svg">
<path d="M583.938 484.031L591.219 448.5H595.719L595.531 457.406L587.656 494H582.938L583.938 484.031ZM579.312 448.5L585.094 483.781L585.344 494H580.375L571.781 448.5H579.312ZM603.625 483.656L609.344 448.5H616.844L608.281 494H603.312L603.625 483.656ZM597.531 448.5L604.75 484.125L605.688 494H600.969L593.281 457.375L593.094 448.5H597.531ZM661.118 467.531V475.281C661.118 478.49 660.743 481.302 659.993 483.719C659.263 486.135 658.201 488.156 656.805 489.781C655.43 491.385 653.763 492.594 651.805 493.406C649.868 494.219 647.701 494.625 645.305 494.625C642.93 494.625 640.763 494.219 638.805 493.406C636.868 492.594 635.19 491.385 633.774 489.781C632.378 488.156 631.295 486.135 630.524 483.719C629.774 481.302 629.399 478.49 629.399 475.281V467.531C629.399 464.281 629.774 461.438 630.524 459C631.274 456.542 632.347 454.49 633.743 452.844C635.159 451.198 636.836 449.958 638.774 449.125C640.732 448.292 642.888 447.875 645.243 447.875C647.638 447.875 649.805 448.292 651.743 449.125C653.701 449.958 655.378 451.198 656.774 452.844C658.17 454.49 659.243 456.542 659.993 459C660.743 461.438 661.118 464.281 661.118 467.531ZM653.586 475.281V467.469C653.586 465.156 653.399 463.177 653.024 461.531C652.67 459.865 652.138 458.51 651.43 457.469C650.722 456.406 649.847 455.625 648.805 455.125C647.784 454.604 646.597 454.344 645.243 454.344C643.93 454.344 642.753 454.604 641.711 455.125C640.69 455.625 639.815 456.406 639.086 457.469C638.378 458.51 637.836 459.865 637.461 461.531C637.107 463.177 636.93 465.156 636.93 467.469V475.281C636.93 477.552 637.118 479.51 637.493 481.156C637.868 482.781 638.409 484.115 639.118 485.156C639.847 486.177 640.732 486.938 641.774 487.438C642.815 487.938 643.993 488.188 645.305 488.188C646.638 488.188 647.826 487.938 648.868 487.438C649.909 486.938 650.774 486.177 651.461 485.156C652.17 484.115 652.701 482.781 653.055 481.156C653.409 479.51 653.586 477.552 653.586 475.281ZM676.516 448.5H690.266C693.266 448.5 695.808 449.021 697.891 450.062C699.975 451.104 701.558 452.646 702.641 454.688C703.745 456.708 704.298 459.219 704.298 462.219C704.298 464.49 703.954 466.49 703.266 468.219C702.6 469.948 701.631 471.406 700.36 472.594C699.089 473.76 697.558 474.667 695.766 475.312L693.548 476.531H681.923L681.891 470.156H690.079C691.558 470.156 692.787 469.833 693.766 469.188C694.745 468.542 695.475 467.646 695.954 466.5C696.454 465.354 696.704 464.052 696.704 462.594C696.704 461.031 696.485 459.677 696.048 458.531C695.61 457.365 694.923 456.469 693.985 455.844C693.048 455.198 691.808 454.875 690.266 454.875H684.11V494H676.516V448.5ZM697.704 494L689.048 473.562L696.954 473.531L705.829 493.594V494H697.704ZM726.509 448.5V494H718.915V448.5H726.509ZM749.227 448.5L734.071 470.469L724.977 481.625L723.54 473.688L729.821 464.375L740.04 448.5H749.227ZM740.884 494L729.352 472.5L734.571 467.094L749.852 494H740.884ZM781.345 482.25C781.345 481.312 781.241 480.479 781.033 479.75C780.845 479 780.48 478.323 779.939 477.719C779.397 477.115 778.626 476.521 777.626 475.938C776.647 475.354 775.376 474.76 773.814 474.156C772.022 473.469 770.345 472.719 768.783 471.906C767.241 471.073 765.876 470.135 764.689 469.094C763.522 468.031 762.605 466.792 761.939 465.375C761.272 463.958 760.939 462.312 760.939 460.438C760.939 458.583 761.262 456.896 761.908 455.375C762.574 453.833 763.512 452.51 764.72 451.406C765.949 450.281 767.408 449.417 769.095 448.812C770.783 448.188 772.647 447.875 774.689 447.875C777.626 447.875 780.137 448.5 782.22 449.75C784.324 451 785.928 452.677 787.033 454.781C788.158 456.885 788.72 459.219 788.72 461.781H781.158C781.158 460.302 780.928 458.99 780.47 457.844C780.012 456.698 779.303 455.802 778.345 455.156C777.387 454.51 776.147 454.188 774.626 454.188C773.23 454.188 772.074 454.458 771.158 455C770.262 455.542 769.595 456.281 769.158 457.219C768.741 458.156 768.533 459.229 768.533 460.438C768.533 461.271 768.71 462.031 769.064 462.719C769.418 463.385 769.928 464 770.595 464.562C771.262 465.125 772.074 465.656 773.033 466.156C773.991 466.656 775.095 467.135 776.345 467.594C778.47 468.365 780.324 469.219 781.908 470.156C783.491 471.094 784.793 472.146 785.814 473.312C786.855 474.458 787.626 475.76 788.126 477.219C788.647 478.677 788.908 480.333 788.908 482.188C788.908 484.062 788.585 485.771 787.939 487.312C787.314 488.833 786.397 490.135 785.189 491.219C783.98 492.302 782.522 493.146 780.814 493.75C779.105 494.333 777.189 494.625 775.064 494.625C773.105 494.625 771.22 494.333 769.408 493.75C767.616 493.167 766.012 492.281 764.595 491.094C763.178 489.885 762.053 488.375 761.22 486.562C760.408 484.75 760.001 482.625 760.001 480.188H767.595C767.595 481.646 767.772 482.896 768.126 483.938C768.48 484.958 768.991 485.802 769.658 486.469C770.345 487.115 771.147 487.594 772.064 487.906C773.001 488.198 774.043 488.344 775.189 488.344C776.605 488.344 777.762 488.094 778.658 487.594C779.574 487.073 780.251 486.354 780.689 485.438C781.126 484.521 781.345 483.458 781.345 482.25ZM818.431 477.125H808.837V470.781H818.431C820.015 470.781 821.285 470.448 822.244 469.781C823.202 469.115 823.9 468.198 824.337 467.031C824.796 465.865 825.025 464.542 825.025 463.062C825.025 461.646 824.796 460.312 824.337 459.062C823.9 457.812 823.202 456.802 822.244 456.031C821.285 455.26 820.015 454.875 818.431 454.875H810.994V494H803.4V448.5H818.431C821.452 448.5 824.015 449.125 826.119 450.375C828.244 451.625 829.869 453.344 830.994 455.531C832.119 457.698 832.681 460.188 832.681 463C832.681 465.938 832.119 468.458 830.994 470.562C829.869 472.667 828.244 474.292 826.119 475.438C824.015 476.562 821.452 477.125 818.431 477.125ZM857.767 454.75L846.767 494H838.83L853.267 448.5H858.205L857.767 454.75ZM866.549 494L855.517 454.75L854.986 448.5H860.017L874.517 494H866.549ZM866.736 477.094V483.469H845.549V477.094H866.736ZM909.01 479.156H916.573C916.427 482.448 915.76 485.25 914.573 487.562C913.385 489.854 911.677 491.604 909.448 492.812C907.239 494.021 904.541 494.625 901.354 494.625C898.937 494.625 896.77 494.188 894.854 493.312C892.958 492.438 891.343 491.177 890.01 489.531C888.677 487.865 887.656 485.833 886.948 483.438C886.26 481.042 885.916 478.323 885.916 475.281V467.219C885.916 464.177 886.27 461.458 886.979 459.062C887.708 456.667 888.75 454.635 890.104 452.969C891.458 451.302 893.104 450.042 895.041 449.188C897 448.312 899.208 447.875 901.666 447.875C904.812 447.875 907.458 448.479 909.604 449.688C911.75 450.896 913.406 452.667 914.573 455C915.739 457.333 916.416 460.177 916.604 463.531H909.041C908.937 461.26 908.625 459.448 908.104 458.094C907.604 456.719 906.833 455.729 905.791 455.125C904.77 454.521 903.395 454.219 901.666 454.219C900.229 454.219 898.989 454.49 897.948 455.031C896.927 455.573 896.083 456.385 895.416 457.469C894.77 458.531 894.281 459.875 893.948 461.5C893.635 463.104 893.479 464.99 893.479 467.156V475.281C893.479 477.365 893.614 479.208 893.885 480.812C894.156 482.417 894.593 483.781 895.198 484.906C895.802 486.01 896.604 486.854 897.604 487.438C898.604 488 899.854 488.281 901.354 488.281C903.145 488.281 904.573 488 905.635 487.438C906.718 486.875 907.52 485.927 908.041 484.594C908.562 483.26 908.885 481.448 909.01 479.156ZM956.284 487.656V494H936.534V487.656H956.284ZM938.534 448.5V494H930.94V448.5H938.534ZM953.628 467.438V473.688H936.534V467.438H953.628ZM956.096 448.5V454.875H936.534V448.5H956.096ZM989.807 482.25C989.807 481.312 989.703 480.479 989.495 479.75C989.307 479 988.943 478.323 988.401 477.719C987.86 477.115 987.089 476.521 986.089 475.938C985.11 475.354 983.839 474.76 982.276 474.156C980.485 473.469 978.807 472.719 977.245 471.906C975.703 471.073 974.339 470.135 973.151 469.094C971.985 468.031 971.068 466.792 970.401 465.375C969.735 463.958 969.401 462.312 969.401 460.438C969.401 458.583 969.724 456.896 970.37 455.375C971.037 453.833 971.974 452.51 973.182 451.406C974.412 450.281 975.87 449.417 977.557 448.812C979.245 448.188 981.11 447.875 983.151 447.875C986.089 447.875 988.599 448.5 990.682 449.75C992.787 451 994.391 452.677 995.495 454.781C996.62 456.885 997.182 459.219 997.182 461.781H989.62C989.62 460.302 989.391 458.99 988.932 457.844C988.474 456.698 987.766 455.802 986.807 455.156C985.849 454.51 984.61 454.188 983.089 454.188C981.693 454.188 980.537 454.458 979.62 455C978.724 455.542 978.057 456.281 977.62 457.219C977.203 458.156 976.995 459.229 976.995 460.438C976.995 461.271 977.172 462.031 977.526 462.719C977.88 463.385 978.391 464 979.057 464.562C979.724 465.125 980.537 465.656 981.495 466.156C982.453 466.656 983.557 467.135 984.807 467.594C986.932 468.365 988.787 469.219 990.37 470.156C991.953 471.094 993.255 472.146 994.276 473.312C995.318 474.458 996.089 475.76 996.589 477.219C997.11 478.677 997.37 480.333 997.37 482.188C997.37 484.062 997.047 485.771 996.401 487.312C995.776 488.833 994.86 490.135 993.651 491.219C992.443 492.302 990.985 493.146 989.276 493.75C987.568 494.333 985.651 494.625 983.526 494.625C981.568 494.625 979.682 494.333 977.87 493.75C976.078 493.167 974.474 492.281 973.057 491.094C971.641 489.885 970.516 488.375 969.682 486.562C968.87 484.75 968.464 482.625 968.464 480.188H976.057C976.057 481.646 976.235 482.896 976.589 483.938C976.943 484.958 977.453 485.802 978.12 486.469C978.807 487.115 979.61 487.594 980.526 487.906C981.464 488.198 982.505 488.344 983.651 488.344C985.068 488.344 986.224 488.094 987.12 487.594C988.037 487.073 988.714 486.354 989.151 485.438C989.589 484.521 989.807 483.458 989.807 482.25Z" fill="white"/>
<path d="M255.812 459.029L91.1621 367.296H420.463L255.812 459.029ZM420.116 367.295H91.5107V193.235H420.116V367.295ZM420.463 193.233H91.1631L255.812 101.499L420.463 193.233Z" fill="white"/>
<path d="M254.286 551L0 409.625H117.089L254.284 486.062L391.479 409.625H508.573L254.286 551ZM508.573 141.375H508.037V409.624H391.48L446.408 379.021H446.004V175.917H62.5654V379.021H62.1592L117.087 409.624H0.537109V141.375H0L254.287 0L508.573 141.375ZM62.1602 175.916H446.409L254.284 68.874L62.1602 175.916Z" fill="url(#paint0_linear_64_2)"/>
<path d="M371.895 340.702H372.144L255.215 405.849L138.285 340.702H138.53V217.092H371.895V340.702ZM372.142 217.09H138.283L255.213 151.943L372.142 217.09Z" fill="#1E1E1E"/>
<line x1="254.788" y1="279.125" x2="254.788" y2="424.125" stroke="white"/>
<line x1="382.455" y1="210.692" x2="254.521" y2="278.941" stroke="white"/>
<line y1="-0.5" x2="145" y2="-0.5" transform="matrix(0.882302 0.470684 0.470684 -0.882302 127.411 210.251)" stroke="white"/>
<path d="M484.369 422.45L431.102 451.577L287.376 357.718L340.642 328.59L484.369 422.45Z" fill="white"/>
<mask id="path-9-outside-1_64_2" maskUnits="userSpaceOnUse" x="533.802" y="173.434" width="578" height="219" fill="black">
<rect fill="white" x="533.802" y="173.434" width="578" height="219"/>
<path d="M809.562 296.914V309.394C809.562 342.674 800.815 364.647 783.322 375.314C766.042 385.767 739.268 390.994 703.002 390.994L649.882 390.674C621.722 390.674 600.175 389.18 585.242 386.194C570.308 383.207 558.255 375.634 549.082 363.474C539.908 351.314 535.322 332.22 535.322 306.194V175.314H600.282V286.994C600.282 308.327 602.842 322.194 607.962 328.594C613.082 334.994 625.988 338.194 646.682 338.194L675.802 338.514L702.682 338.194C720.388 338.194 731.695 335.42 736.602 329.874C741.722 324.327 744.282 313.127 744.282 296.274V288.274V175.314H809.562V296.914ZM1035.89 174.994C1057.22 174.994 1073.54 179.047 1084.85 187.154C1096.16 195.26 1101.81 209.554 1101.81 230.034C1101.81 238.994 1100.96 246.674 1099.25 253.074C1097.76 259.26 1094.88 264.167 1090.61 267.794C1086.56 271.42 1082.72 273.874 1079.09 275.154C1075.68 276.434 1070.77 277.927 1064.37 279.634C1081.65 282.407 1093.6 286.78 1100.21 292.754C1106.82 298.727 1110.13 310.14 1110.13 326.994C1110.13 350.674 1104.37 366.887 1092.85 375.634C1081.54 384.167 1063.62 388.434 1039.09 388.434H833.329V174.994H1035.89ZM1036.21 239.634C1036.21 232.38 1034.08 227.58 1029.81 225.234C1025.76 222.887 1019.68 221.714 1011.57 221.714H898.289V258.834H1010.29C1018.82 258.834 1025.22 257.66 1029.49 255.314C1033.97 252.967 1036.21 247.74 1036.21 239.634ZM1044.85 319.314C1044.85 313.554 1042.93 309.074 1039.09 305.874C1035.46 302.674 1028.21 301.074 1017.33 301.074H898.289V340.114H1016.37C1023.84 340.114 1030.45 339.367 1036.21 337.874C1041.97 336.167 1044.85 329.98 1044.85 319.314Z"/>
</mask>
<path d="M809.562 296.914V309.394C809.562 342.674 800.815 364.647 783.322 375.314C766.042 385.767 739.268 390.994 703.002 390.994L649.882 390.674C621.722 390.674 600.175 389.18 585.242 386.194C570.308 383.207 558.255 375.634 549.082 363.474C539.908 351.314 535.322 332.22 535.322 306.194V175.314H600.282V286.994C600.282 308.327 602.842 322.194 607.962 328.594C613.082 334.994 625.988 338.194 646.682 338.194L675.802 338.514L702.682 338.194C720.388 338.194 731.695 335.42 736.602 329.874C741.722 324.327 744.282 313.127 744.282 296.274V288.274V175.314H809.562V296.914ZM1035.89 174.994C1057.22 174.994 1073.54 179.047 1084.85 187.154C1096.16 195.26 1101.81 209.554 1101.81 230.034C1101.81 238.994 1100.96 246.674 1099.25 253.074C1097.76 259.26 1094.88 264.167 1090.61 267.794C1086.56 271.42 1082.72 273.874 1079.09 275.154C1075.68 276.434 1070.77 277.927 1064.37 279.634C1081.65 282.407 1093.6 286.78 1100.21 292.754C1106.82 298.727 1110.13 310.14 1110.13 326.994C1110.13 350.674 1104.37 366.887 1092.85 375.634C1081.54 384.167 1063.62 388.434 1039.09 388.434H833.329V174.994H1035.89ZM1036.21 239.634C1036.21 232.38 1034.08 227.58 1029.81 225.234C1025.76 222.887 1019.68 221.714 1011.57 221.714H898.289V258.834H1010.29C1018.82 258.834 1025.22 257.66 1029.49 255.314C1033.97 252.967 1036.21 247.74 1036.21 239.634ZM1044.85 319.314C1044.85 313.554 1042.93 309.074 1039.09 305.874C1035.46 302.674 1028.21 301.074 1017.33 301.074H898.289V340.114H1016.37C1023.84 340.114 1030.45 339.367 1036.21 337.874C1041.97 336.167 1044.85 329.98 1044.85 319.314Z" fill="white"/>
<path d="M783.322 375.314L783.839 376.169L783.842 376.167L783.322 375.314ZM703.002 390.994L702.996 391.994H703.002V390.994ZM649.882 390.674L649.888 389.674H649.882V390.674ZM585.242 386.194L585.438 385.213L585.242 386.194ZM549.082 363.474L549.88 362.871L549.082 363.474ZM535.322 175.314V174.314H534.322V175.314H535.322ZM600.282 175.314H601.282V174.314H600.282V175.314ZM607.962 328.594L608.743 327.969L607.962 328.594ZM646.682 338.194L646.693 337.194H646.682V338.194ZM675.802 338.514L675.791 339.514L675.802 339.514L675.814 339.514L675.802 338.514ZM702.682 338.194V337.194L702.67 337.194L702.682 338.194ZM736.602 329.874L735.867 329.195L735.86 329.203L735.853 329.211L736.602 329.874ZM744.282 175.314V174.314H743.282V175.314H744.282ZM809.562 175.314H810.562V174.314H809.562V175.314ZM809.562 296.914H808.562V309.394H809.562H810.562V296.914H809.562ZM809.562 309.394H808.562C808.562 342.551 799.844 364.068 782.801 374.46L783.322 375.314L783.842 376.167C801.786 365.226 810.562 342.796 810.562 309.394H809.562ZM783.322 375.314L782.804 374.458C765.761 384.768 739.211 389.994 703.002 389.994V390.994V391.994C739.326 391.994 766.323 386.766 783.839 376.169L783.322 375.314ZM703.002 390.994L703.008 389.994L649.888 389.674L649.882 390.674L649.876 391.674L702.996 391.994L703.002 390.994ZM649.882 390.674V389.674C621.742 389.674 600.274 388.18 585.438 385.213L585.242 386.194L585.046 387.174C600.077 390.18 621.701 391.674 649.882 391.674V390.674ZM585.242 386.194L585.438 385.213C570.745 382.274 558.906 374.836 549.88 362.871L549.082 363.474L548.283 364.076C557.604 376.431 569.872 384.139 585.046 387.174L585.242 386.194ZM549.082 363.474L549.88 362.871C540.902 350.97 536.322 332.142 536.322 306.194H535.322H534.322C534.322 332.299 538.915 351.657 548.283 364.076L549.082 363.474ZM535.322 306.194H536.322V175.314H535.322H534.322V306.194H535.322ZM535.322 175.314V176.314H600.282V175.314V174.314H535.322V175.314ZM600.282 175.314H599.282V286.994H600.282H601.282V175.314H600.282ZM600.282 286.994H599.282C599.282 297.694 599.923 306.56 601.218 313.575C602.51 320.569 604.468 325.828 607.181 329.218L607.962 328.594L608.743 327.969C606.335 324.959 604.454 320.085 603.185 313.212C601.92 306.361 601.282 297.627 601.282 286.994H600.282ZM607.962 328.594L607.181 329.218C609.94 332.667 614.697 335.142 621.241 336.764C627.804 338.391 636.294 339.194 646.682 339.194V338.194V337.194C636.377 337.194 628.066 336.396 621.722 334.823C615.36 333.245 611.103 330.92 608.743 327.969L607.962 328.594ZM646.682 338.194L646.671 339.194L675.791 339.514L675.802 338.514L675.813 337.514L646.693 337.194L646.682 338.194ZM675.802 338.514L675.814 339.514L702.694 339.194L702.682 338.194L702.67 337.194L675.79 337.514L675.802 338.514ZM702.682 338.194V339.194C711.578 339.194 718.919 338.498 724.68 337.085C730.426 335.675 734.705 333.526 737.351 330.536L736.602 329.874L735.853 329.211C733.591 331.767 729.764 333.779 724.204 335.142C718.657 336.503 711.492 337.194 702.682 337.194V338.194ZM736.602 329.874L737.337 330.552C740.061 327.6 742.036 323.225 743.337 317.536C744.639 311.838 745.282 304.744 745.282 296.274H744.282H743.282C743.282 304.657 742.644 311.589 741.387 317.091C740.127 322.602 738.262 326.6 735.867 329.195L736.602 329.874ZM744.282 296.274H745.282V288.274H744.282H743.282V296.274H744.282ZM744.282 288.274H745.282V175.314H744.282H743.282V288.274H744.282ZM744.282 175.314V176.314H809.562V175.314V174.314H744.282V175.314ZM809.562 175.314H808.562V296.914H809.562H810.562V175.314H809.562ZM1084.85 187.154L1084.27 187.966L1084.85 187.154ZM1099.25 253.074L1098.28 252.816L1098.28 252.827L1098.28 252.839L1099.25 253.074ZM1090.61 267.794L1089.96 267.032L1089.95 267.04L1089.94 267.048L1090.61 267.794ZM1079.09 275.154L1078.76 274.211L1078.75 274.214L1078.74 274.217L1079.09 275.154ZM1064.37 279.634L1064.11 278.667L1064.21 280.621L1064.37 279.634ZM1100.21 292.754L1100.88 292.011L1100.21 292.754ZM1092.85 375.634L1093.45 376.432L1093.45 376.43L1092.85 375.634ZM833.329 388.434H832.329V389.434H833.329V388.434ZM833.329 174.994V173.994H832.329V174.994H833.329ZM1029.81 225.234L1029.31 226.099L1029.32 226.104L1029.33 226.11L1029.81 225.234ZM898.289 221.714V220.714H897.289V221.714H898.289ZM898.289 258.834H897.289V259.834H898.289V258.834ZM1029.49 255.314L1029.03 254.428L1029.02 254.432L1029.01 254.437L1029.49 255.314ZM1039.09 305.874L1038.43 306.623L1038.44 306.633L1038.45 306.642L1039.09 305.874ZM898.289 301.074V300.074H897.289V301.074H898.289ZM898.289 340.114H897.289V341.114H898.289V340.114ZM1036.21 337.874L1036.46 338.842L1036.48 338.837L1036.49 338.832L1036.21 337.874ZM1035.89 174.994V175.994C1057.12 175.994 1073.2 180.031 1084.27 187.966L1084.85 187.154L1085.43 186.341C1073.89 178.063 1057.33 173.994 1035.89 173.994V174.994ZM1084.85 187.154L1084.27 187.966C1095.2 195.808 1100.81 209.716 1100.81 230.034H1101.81H1102.81C1102.81 209.391 1097.11 194.712 1085.43 186.341L1084.85 187.154ZM1101.81 230.034H1100.81C1100.81 238.935 1099.96 246.524 1098.28 252.816L1099.25 253.074L1100.22 253.331C1101.95 246.824 1102.81 239.052 1102.81 230.034H1101.81ZM1099.25 253.074L1098.28 252.839C1096.83 258.849 1094.05 263.56 1089.96 267.032L1090.61 267.794L1091.26 268.556C1095.71 264.774 1098.69 259.671 1100.22 253.308L1099.25 253.074ZM1090.61 267.794L1089.94 267.048C1085.95 270.621 1082.22 272.988 1078.76 274.211L1079.09 275.154L1079.42 276.097C1083.21 274.759 1087.16 272.219 1091.28 268.539L1090.61 267.794ZM1079.09 275.154L1078.74 274.217C1075.37 275.48 1070.5 276.964 1064.11 278.667L1064.37 279.634L1064.63 280.6C1071.04 278.89 1075.98 277.387 1079.44 276.09L1079.09 275.154ZM1064.37 279.634L1064.21 280.621C1081.45 283.388 1093.15 287.727 1099.54 293.496L1100.21 292.754L1100.88 292.011C1094.04 285.834 1081.85 281.426 1064.53 278.646L1064.37 279.634ZM1100.21 292.754L1099.54 293.496C1105.82 299.167 1109.13 310.195 1109.13 326.994H1110.13H1111.13C1111.13 310.086 1107.83 298.287 1100.88 292.011L1100.21 292.754ZM1110.13 326.994H1109.13C1109.13 350.559 1103.39 366.374 1092.24 374.837L1092.85 375.634L1093.45 376.43C1105.35 367.4 1111.13 350.788 1111.13 326.994H1110.13ZM1092.85 375.634L1092.25 374.835C1081.2 383.172 1063.55 387.434 1039.09 387.434V388.434V389.434C1063.7 389.434 1081.88 385.162 1093.45 376.432L1092.85 375.634ZM1039.09 388.434V387.434H833.329V388.434V389.434H1039.09V388.434ZM833.329 388.434H834.329V174.994H833.329H832.329V388.434H833.329ZM833.329 174.994V175.994H1035.89V174.994V173.994H833.329V174.994ZM1036.21 239.634H1037.21C1037.21 232.212 1035.02 226.958 1030.29 224.357L1029.81 225.234L1029.33 226.11C1033.13 228.203 1035.21 232.549 1035.21 239.634H1036.21ZM1029.81 225.234L1030.31 224.368C1026.03 221.89 1019.74 220.714 1011.57 220.714V221.714V222.714C1019.61 222.714 1025.48 223.883 1029.31 226.099L1029.81 225.234ZM1011.57 221.714V220.714H898.289V221.714V222.714H1011.57V221.714ZM898.289 221.714H897.289V258.834H898.289H899.289V221.714H898.289ZM898.289 258.834V259.834H1010.29V258.834V257.834H898.289V258.834ZM1010.29 258.834V259.834C1018.88 259.834 1025.48 258.658 1029.97 256.19L1029.49 255.314L1029.01 254.437C1024.96 256.663 1018.76 257.834 1010.29 257.834V258.834ZM1029.49 255.314L1029.95 256.199C1034.93 253.591 1037.21 247.871 1037.21 239.634H1036.21H1035.21C1035.21 247.61 1033.01 252.342 1029.03 254.428L1029.49 255.314ZM1044.85 319.314H1045.85C1045.85 313.307 1043.83 308.525 1039.73 305.105L1039.09 305.874L1038.45 306.642C1042.02 309.622 1043.85 313.8 1043.85 319.314H1044.85ZM1039.09 305.874L1039.75 305.124C1037.76 303.367 1034.86 302.116 1031.14 301.297C1027.42 300.476 1022.81 300.074 1017.33 300.074V301.074V302.074C1022.73 302.074 1027.18 302.471 1030.71 303.25C1034.26 304.031 1036.79 305.18 1038.43 306.623L1039.09 305.874ZM1017.33 301.074V300.074H898.289V301.074V302.074H1017.33V301.074ZM898.289 301.074H897.289V340.114H898.289H899.289V301.074H898.289ZM898.289 340.114V341.114H1016.37V340.114V339.114H898.289V340.114ZM1016.37 340.114V341.114C1023.9 341.114 1030.6 340.361 1036.46 338.842L1036.21 337.874L1035.96 336.906C1030.3 338.373 1023.77 339.114 1016.37 339.114V340.114ZM1036.21 337.874L1036.49 338.832C1039.69 337.886 1042.05 335.69 1043.6 332.376C1045.12 329.097 1045.85 324.719 1045.85 319.314H1044.85H1043.85C1043.85 324.575 1043.14 328.624 1041.78 331.532C1040.45 334.404 1038.49 336.154 1035.93 336.915L1036.21 337.874Z" fill="black" mask="url(#path-9-outside-1_64_2)"/>
<defs>
<linearGradient id="paint0_linear_64_2" x1="508.573" y1="275.5" x2="0" y2="275.5" gradientUnits="userSpaceOnUse">
<stop offset="0.490385" stop-color="#3B55A2"/>
<stop offset="1" stop-color="#62CEFD"/>
</linearGradient>
</defs>
</svg>
